<svg id="visual" viewBox="0 0 900 600" width="900" height="600" xmlns="http://www.w3.org/2000/svg" xmlns:xlink="http://www.w3.org/1999/xlink" version="1.1"><path d="M0 367L37.5 377.8C75 388.7 150 410.3 225 407C300 403.7 375 375.3 450 375.3C525 375.3 600 403.7 675 404.7C750 405.7 825 379.3 862.5 366.2L900 353L900 601L862.5 601C825 601 750 601 675 601C600 601 525 601 450 601C375 601 300 601 225 601C150 601 75 601 37.5 601L0 601Z" fill="#505f7e"></path><path d="M0 496L37.5 488.2C75 480.3 150 464.7 225 463C300 461.3 375 473.7 450 477.7C525 481.7 600 477.3 675 472C750 466.7 825 460.3 862.5 457.2L900 454L900 601L862.5 601C825 601 750 601 675 601C600 601 525 601 450 601C375 601 300 601 225 601C150 601 75 601 37.5 601L0 601Z" fill="#2c3b59"></path><path d="M0 518L37.5 519.7C75 521.3 150 524.7 225 529.5C300 534.3 375 540.7 450 539C525 537.3 600 527.7 675 525.8C750 524 825 530 862.5 533L900 536L900 601L862.5 601C825 601 750 601 675 601C600 601 525 601 450 601C375 601 300 601 225 601C150 601 75 601 37.5 601L0 601Z" fill="#212c41"></path></svg>