<svg id="visual" viewBox="0 0 960 540" width="960" height="540" xmlns="http://www.w3.org/2000/svg" xmlns:xlink="http://www.w3.org/1999/xlink" version="1.1"><path d="M0 429L26.7 428.8C53.3 428.7 106.7 428.3 160 424.2C213.3 420 266.7 412 320 394C373.3 376 426.7 348 480 346.7C533.3 345.3 586.7 370.7 640 384.2C693.3 397.7 746.7 399.3 800 383.2C853.3 367 906.7 333 933.3 316L960 299L960 541L933.3 541C906.7 541 853.3 541 800 541C746.7 541 693.3 541 640 541C586.7 541 533.3 541 480 541C426.7 541 373.3 541 320 541C266.7 541 213.3 541 160 541C106.7 541 53.3 541 26.7 541L0 541Z" fill="#93b739"></path><path d="M0 362L26.7 373.7C53.3 385.3 106.7 408.7 160 420C213.3 431.3 266.7 430.7 320 432.2C373.3 433.7 426.7 437.3 480 428.2C533.3 419 586.7 397 640 391.3C693.3 385.7 746.7 396.3 800 409.7C853.3 423 906.7 439 933.3 447L960 455L960 541L933.3 541C906.7 541 853.3 541 800 541C746.7 541 693.3 541 640 541C586.7 541 533.3 541 480 541C426.7 541 373.3 541 320 541C266.7 541 213.3 541 160 541C106.7 541 53.3 541 26.7 541L0 541Z" fill="#5b8625"></path><path d="M0 470L26.7 468.2C53.3 466.3 106.7 462.7 160 458.7C213.3 454.7 266.7 450.3 320 454.3C373.3 458.3 426.7 470.7 480 477.2C533.3 483.7 586.7 484.3 640 482.2C693.3 480 746.7 475 800 479.7C853.3 484.3 906.7 498.7 933.3 505.8L960 513L960 541L933.3 541C906.7 541 853.3 541 800 541C746.7 541 693.3 541 640 541C586.7 541 533.3 541 480 541C426.7 541 373.3 541 320 541C266.7 541 213.3 541 160 541C106.7 541 53.3 541 26.7 541L0 541Z" fill="#2a5711"></path></svg>